<?xml version="1.0" encoding="iso-8859-1"?>
<!-- Uploaded to: SVG Repo, www.svgrepo.com, Generator: SVG Repo Mixer Tools -->
<svg version="1.1" id="Layer_1" xmlns="http://www.w3.org/2000/svg" xmlns:xlink="http://www.w3.org/1999/xlink" 
	 viewBox="0 0 502 502" xml:space="preserve">
<g>
	<path style="fill:#F77E65;" d="M456.667,355.495V93.505H45.333v261.99H10l0,0c0,29.271,23.729,53,53,53h376
		c29.271,0,53-23.729,53-53l0,0H456.667z"/>
	<rect x="85.333" y="133.495" style="fill:#F0EFE4;" width="331.333" height="222"/>
	<g>
		<path d="M492,345.495h-25.333V93.505c0-5.522-4.477-10-10-10H45.333c-5.523,0-10,4.478-10,10v251.99H10c-5.523,0-10,4.478-10,10
			c0,34.738,28.262,63,63,63h376c34.738,0,63-28.262,63-63C502,349.973,497.523,345.495,492,345.495z M55.333,103.505h391.333
			v241.99h-20v-212c0-5.522-4.477-10-10-10H85.333c-5.523,0-10,4.478-10,10v212h-20V103.505z M406.667,345.495H95.333v-202h311.333
			L406.667,345.495L406.667,345.495z M480.826,365.495c-4.519,18.904-21.557,33-41.826,33H63c-20.269,0-37.307-14.096-41.826-33
			H480.826z"/>
		<path d="M118.667,175.495h97c5.523,0,10-4.478,10-10s-4.477-10-10-10h-97c-5.523,0-10,4.478-10,10
			S113.144,175.495,118.667,175.495z"/>
		<path d="M247.667,175.495h16c5.523,0,10-4.478,10-10s-4.477-10-10-10h-16c-5.523,0-10,4.478-10,10
			S242.144,175.495,247.667,175.495z"/>
	</g>
</g>
</svg>