<?xml version="1.0" standalone="no"?>
<!DOCTYPE svg PUBLIC "-//W3C//DTD SVG 20010904//EN"
 "http://www.w3.org/TR/2001/REC-SVG-20010904/DTD/svg10.dtd">
<svg version="1.1" id="Layer_1" xmlns="http://www.w3.org/2000/svg" xmlns:xlink="http://www.w3.org/1999/xlink" x="0px" y="0px"
	 viewBox="0 0 64 64" style="enable-background:new 0 0 64 64;" xml:space="preserve">

<g transform="translate(0.000000,300.000000) scale(0.100000,-0.100000)"
fill="#000000" stroke="none">
<path d="M1027 2626 c-158 -95 -290 -176 -293 -179 -3 -3 43 -115 101 -250
l107 -244 51 28 c168 90 349 99 495 25 70 -35 170 -132 212 -203 33 -56 38
-61 189 -144 86 -48 158 -85 159 -83 2 1 -44 71 -103 154 -59 83 -105 153
-103 156 3 2 105 -19 228 -46 122 -28 227 -49 232 -48 5 2 -35 32 -89 66 -54
35 -142 92 -196 126 l-98 63 173 68 c95 37 215 84 266 104 l92 37 -337 43
c-186 24 -339 44 -341 46 -4 3 97 70 281 185 65 41 114 76 110 77 -5 2 -143
-22 -307 -52 -164 -31 -302 -55 -306 -53 -4 2 36 66 90 143 53 77 96 141 95
143 -1 1 -121 -56 -265 -128 -145 -71 -265 -129 -267 -127 -2 2 15 44 38 93
22 49 48 105 57 124 8 19 17 38 19 43 6 10 21 19 -290 -167z"/>
<path d="M1016 1683 c-4 -87 -9 -160 -12 -164 -2 -4 -53 -38 -114 -75 -96 -60
-110 -72 -110 -96 0 -23 7 -29 53 -46 28 -11 87 -32 129 -48 l77 -28 36 -146
c20 -80 40 -151 44 -158 4 -7 44 35 106 113 l99 125 56 -1 c30 0 102 -4 160
-8 58 -5 107 -7 109 -5 2 2 -35 62 -82 134 -48 71 -87 136 -87 143 0 7 25 75
56 151 30 76 53 141 50 143 -3 3 -73 -13 -155 -36 -83 -24 -154 -40 -159 -37
-5 3 -60 48 -123 101 -63 52 -117 95 -120 95 -3 0 -9 -71 -13 -157z m35 -259
l57 -16 -5 -39 c-14 -98 117 -163 232 -115 28 12 41 25 71 74 1 2 14 0 29 -4
l27 -7 -44 -44 c-120 -124 -235 -136 -337 -34 -41 41 -72 93 -97 163 -15 44
-14 45 67 22z m105 -45 c10 -17 -23 -46 -37 -32 -7 7 -9 19 -6 27 7 18 33 21
43 5z"/>
<path d="M689 1653 c-10 -32 -10 -38 7 -50 27 -19 43 -16 56 12 10 22 8 29
-12 50 -31 33 -36 32 -51 -12z"/>
<path d="M590 1600 c0 -34 4 -41 24 -46 33 -8 46 2 46 36 0 23 -6 30 -31 39
-18 6 -34 11 -35 11 -2 0 -4 -18 -4 -40z"/>
<path d="M2254 1442 c-6 -4 -19 -30 -28 -58 -22 -68 -81 -151 -133 -187 -28
-20 -60 -32 -100 -37 l-58 -7 51 -2 c116 -3 223 95 274 252 13 41 11 50 -6 39z"/>
<path d="M2000 1381 c-36 -10 -95 -26 -132 -36 -38 -10 -68 -23 -68 -30 0 -17
51 -62 83 -74 93 -35 219 17 227 95 8 71 -1 75 -110 45z m98 -14 c4 -20 -25
-34 -40 -19 -15 15 -1 44 19 40 10 -2 19 -11 21 -21z"/>
<path d="M645 1305 c-14 -13 -25 -33 -25 -43 0 -31 32 -62 70 -68 73 -12 120
68 68 116 -31 28 -83 26 -113 -5z m79 -11 c25 -9 20 -53 -6 -63 -44 -16 -77
26 -46 57 13 13 28 15 52 6z"/>
<path d="M1870 1053 c-71 -36 -280 -93 -344 -93 -37 -1 -39 -2 -23 -14 31 -24
136 -38 194 -27 88 17 204 85 229 134 9 16 14 30 12 31 -2 1 -32 -12 -68 -31z"/>
<path d="M821 717 c-75 -44 -61 -133 28 -175 24 -11 36 -24 36 -37 0 -18 -6
-20 -57 -18 -57 2 -58 2 -58 -26 0 -24 5 -30 31 -35 51 -10 88 -7 119 9 35 18
50 43 50 83 0 33 -19 55 -75 86 -26 14 -40 29 -40 41 0 17 7 20 47 19 41 0 47
3 53 24 3 13 3 27 0 30 -12 13 -111 12 -134 -1z"/>
<path d="M1910 570 l0 -150 35 0 35 0 0 150 0 150 -35 0 -35 0 0 -150z"/>
<path d="M2000 691 c0 -27 3 -30 38 -33 l37 -3 3 -117 3 -118 34 0 35 0 0 120
0 120 40 0 c38 0 40 2 40 30 l0 30 -115 0 -115 0 0 -29z"/>
<path d="M990 555 l0 -135 30 0 29 0 3 83 3 82 55 -82 c52 -79 57 -83 93 -83
l37 0 0 135 0 135 -30 0 -29 0 -3 -81 -3 -82 -55 81 c-52 77 -57 81 -92 82
l-38 0 0 -135z"/>
<path d="M1280 555 l0 -135 35 0 35 0 0 135 0 135 -35 0 -35 0 0 -135z"/>
<path d="M1380 555 l0 -135 35 0 35 0 0 109 0 110 30 -10 c36 -13 42 -52 10
-69 -12 -6 -20 -21 -20 -35 0 -20 5 -25 26 -25 37 0 84 50 84 90 0 68 -47 100
-145 100 l-55 0 0 -135z"/>
<path d="M1600 555 l0 -135 80 0 c79 0 80 0 80 25 0 23 -4 25 -45 25 -43 0
-45 1 -45 30 0 28 2 30 40 30 36 0 40 3 40 25 0 23 -4 25 -40 25 -38 0 -40 2
-40 30 0 29 2 30 44 30 41 0 43 1 38 25 -4 24 -7 25 -78 25 l-74 0 0 -135z"/>
<path d="M1770 535 c0 -24 3 -25 60 -25 57 0 60 1 60 25 0 24 -3 25 -60 25
-57 0 -60 -1 -60 -25z"/>
</g>
</svg>
