<?xml version="1.0" encoding="UTF-8"?>
<svg xmlns="http://www.w3.org/2000/svg" xmlns:xlink="http://www.w3.org/1999/xlink" width="64px" height="64px" viewBox="0 0 64 64" version="1.1">
<g id="surface1">
<path style=" stroke:none;fill-rule:nonzero;fill:rgb(0%,0%,0%);fill-opacity:1;" d="M 21.835938 8.058594 C 16.425781 11.332031 15.6875 11.871094 15.828125 12.382812 C 16.457031 14.292969 20.128906 22.179688 20.355469 22.09375 C 23.628906 20.613281 24.484375 20.382812 26.761719 20.269531 C 28.699219 20.183594 29.496094 20.269531 30.746094 20.753906 C 32.625 21.464844 34.902344 23.375 36.15625 25.339844 C 36.953125 26.5625 37.523438 27.019531 40.339844 28.613281 C 42.164062 29.636719 43.671875 30.433594 43.730469 30.40625 C 43.757812 30.347656 42.789062 28.898438 41.539062 27.1875 C 40.3125 25.480469 39.289062 23.972656 39.289062 23.859375 C 39.289062 23.714844 39.574219 23.6875 39.941406 23.773438 C 45.578125 25.109375 49.109375 25.878906 49.167969 25.792969 C 49.253906 25.707031 45.636719 23.289062 42.449219 21.351562 L 40.910156 20.414062 L 42.304688 19.785156 C 43.074219 19.472656 45.523438 18.503906 47.773438 17.652344 C 50.648438 16.539062 51.699219 16.027344 51.332031 15.886719 C 50.847656 15.6875 43.21875 14.691406 39.515625 14.320312 C 38.605469 14.234375 37.863281 14.0625 37.863281 13.980469 C 37.863281 13.894531 38.976562 13.097656 40.3125 12.242188 C 46.492188 8.3125 46.578125 8.257812 45.695312 8.398438 C 45.238281 8.511719 42.21875 9.054688 39.003906 9.652344 C 35.785156 10.25 33.109375 10.703125 33.054688 10.648438 C 32.996094 10.589844 34.734375 7.914062 36.699219 5.097656 C 37.066406 4.582031 37.039062 4.554688 36.382812 4.8125 C 35.984375 4.953125 33.453125 6.179688 30.777344 7.542969 C 28.070312 8.882812 25.792969 9.9375 25.707031 9.878906 C 25.652344 9.792969 25.964844 8.996094 26.421875 8.085938 C 27.21875 6.492188 28.214844 4.242188 28.101562 4.300781 C 28.070312 4.300781 25.253906 6.007812 21.835938 8.058594 Z M 21.835938 8.058594 "/>
<path style=" stroke:none;fill-rule:nonzero;fill:rgb(0%,0%,0%);fill-opacity:1;" d="M 21.921875 24.824219 C 21.921875 24.882812 21.835938 26.304688 21.75 28.042969 C 21.664062 29.75 21.550781 31.316406 21.496094 31.460938 C 21.464844 31.628906 20.382812 32.398438 19.101562 33.167969 C 17.339844 34.277344 16.824219 34.734375 16.796875 35.246094 C 16.796875 35.617188 16.996094 35.957031 17.308594 36.042969 C 17.566406 36.128906 18.789062 36.582031 19.984375 37.066406 C 22.40625 38.007812 22.148438 37.636719 23.089844 41.339844 C 23.261719 42.019531 23.515625 43.046875 23.660156 43.644531 L 23.941406 44.753906 L 26.105469 41.964844 L 28.269531 39.203125 L 31.800781 39.429688 L 35.332031 39.628906 L 34.25 37.949219 C 33.652344 37.039062 32.824219 35.785156 32.398438 35.1875 C 31.941406 34.589844 31.601562 33.9375 31.601562 33.765625 C 31.601562 33.59375 32.113281 32.140625 32.769531 30.519531 C 33.421875 28.898438 33.878906 27.53125 33.792969 27.445312 C 33.738281 27.359375 32.257812 27.699219 30.519531 28.214844 L 27.386719 29.125 L 25.652344 27.785156 C 24.710938 27.046875 23.859375 26.335938 23.773438 26.191406 C 23.601562 25.90625 21.921875 24.683594 21.921875 24.824219 Z M 23.144531 33.765625 C 23.402344 33.851562 23.628906 34.050781 23.628906 34.191406 C 23.628906 34.335938 23.886719 34.449219 24.199219 34.449219 C 24.511719 34.449219 24.769531 34.589844 24.769531 34.761719 C 24.769531 34.933594 24.511719 35.132812 24.199219 35.21875 C 23.402344 35.445312 23.488281 35.984375 24.511719 36.839844 C 25.992188 38.09375 29.296875 37.636719 29.78125 36.101562 C 29.949219 35.53125 30.148438 35.472656 30.746094 35.871094 C 31.058594 36.070312 30.945312 36.328125 30.035156 37.179688 C 28.382812 38.71875 26.734375 39.402344 25.453125 39.03125 C 23.886719 38.605469 22.691406 37.523438 21.695312 35.644531 C 21.179688 34.703125 20.78125 33.792969 20.78125 33.59375 C 20.78125 33.28125 21.578125 33.339844 23.144531 33.765625 Z M 23.144531 33.765625 "/>
<path style=" stroke:none;fill-rule:nonzero;fill:rgb(0%,0%,0%);fill-opacity:1;" d="M 14.746094 28.613281 C 14.433594 29.296875 14.460938 29.4375 14.945312 29.78125 C 15.316406 30.0625 15.574219 30.09375 15.859375 29.863281 C 16.371094 29.410156 16.3125 28.925781 15.660156 28.328125 C 15.117188 27.84375 15.089844 27.84375 14.746094 28.613281 Z M 14.746094 28.613281 "/>
<path style=" stroke:none;fill-rule:nonzero;fill:rgb(0%,0%,0%);fill-opacity:1;" d="M 12.527344 29.863281 C 12.527344 30.605469 12.925781 31.03125 13.664062 31.03125 C 14.207031 31.03125 14.148438 29.863281 13.578125 29.464844 C 12.726562 28.867188 12.527344 28.925781 12.527344 29.863281 Z M 12.527344 29.863281 "/>
<path style=" stroke:none;fill-rule:nonzero;fill:rgb(0%,0%,0%);fill-opacity:1;" d="M 47.460938 34.761719 C 46.546875 37.265625 44.328125 39.261719 42.363281 39.316406 C 41.820312 39.34375 41.652344 39.402344 41.9375 39.488281 C 44.15625 40.058594 47.261719 37.351562 48.257812 33.9375 C 48.625 32.683594 47.941406 33.339844 47.460938 34.761719 Z M 47.460938 34.761719 "/>
<path style=" stroke:none;fill-rule:nonzero;fill:rgb(0%,0%,0%);fill-opacity:1;" d="M 41.28125 34.960938 C 39.800781 35.359375 38.546875 35.730469 38.492188 35.757812 C 38.179688 35.984375 39.203125 37.125 40 37.464844 C 42.019531 38.292969 44.214844 37.578125 44.925781 35.871094 C 45.265625 35.019531 45.265625 34.960938 44.867188 35.273438 C 44.355469 35.699219 43.84375 35.472656 43.84375 34.820312 C 43.84375 34.535156 44.015625 34.421875 44.414062 34.535156 C 44.726562 34.621094 44.980469 34.5625 44.980469 34.421875 C 44.980469 34.050781 44.269531 34.136719 41.28125 34.960938 Z M 41.28125 34.960938 "/>
<path style=" stroke:none;fill-rule:nonzero;fill:rgb(0%,0%,0%);fill-opacity:1;" d="M 13.808594 36.042969 C 13.125 36.753906 13.378906 37.921875 14.320312 38.378906 C 15.429688 38.917969 16.511719 38.234375 16.511719 37.011719 C 16.511719 35.699219 14.777344 35.074219 13.808594 36.042969 Z M 15.660156 36.582031 C 16.171875 37.179688 15.800781 37.863281 14.945312 37.863281 C 14.007812 37.863281 13.664062 37.066406 14.378906 36.554688 C 15.058594 36.042969 15.230469 36.070312 15.660156 36.582031 Z M 15.660156 36.582031 "/>
<path style=" stroke:none;fill-rule:nonzero;fill:rgb(0%,0%,0%);fill-opacity:1;" d="M 39.914062 41.621094 C 38.890625 42.25 34.050781 43.558594 32.625 43.558594 L 31.742188 43.585938 L 32.539062 44.015625 C 33.851562 44.726562 36.527344 44.582031 38.292969 43.730469 C 39.742188 42.988281 41.28125 41.738281 41.28125 41.253906 C 41.28125 40.882812 40.96875 40.96875 39.914062 41.621094 Z M 39.914062 41.621094 "/>
<path style=" stroke:none;fill-rule:nonzero;fill:rgb(0%,0%,0%);fill-opacity:1;" d="M 17.9375 48.65625 C 17.023438 48.910156 16.371094 50.078125 16.625 51.046875 C 16.738281 51.558594 17.195312 52.015625 17.964844 52.382812 C 19.386719 53.125 19.273438 53.664062 17.679688 53.636719 C 16.625 53.609375 16.484375 53.695312 16.570312 54.207031 C 16.65625 54.71875 16.882812 54.804688 18.136719 54.890625 C 19.785156 54.976562 20.78125 54.347656 20.78125 53.152344 C 20.78125 52.300781 20.527344 51.984375 19.359375 51.332031 C 18.820312 51.019531 18.335938 50.5625 18.277344 50.304688 C 18.191406 49.90625 18.421875 49.820312 19.332031 49.820312 C 20.269531 49.820312 20.5 49.738281 20.5 49.28125 C 20.5 48.511719 19.386719 48.257812 17.9375 48.65625 Z M 17.9375 48.65625 "/>
<path style=" stroke:none;fill-rule:nonzero;fill:rgb(0%,0%,0%);fill-opacity:1;" d="M 40.710938 51.816406 L 40.710938 54.945312 L 42.136719 54.945312 L 42.136719 48.683594 L 40.710938 48.683594 Z M 40.710938 51.816406 "/>
<path style=" stroke:none;fill-rule:nonzero;fill:rgb(0%,0%,0%);fill-opacity:1;" d="M 42.703125 49.421875 C 42.703125 50.050781 42.820312 50.136719 43.5 50.050781 L 44.269531 49.964844 L 44.355469 52.441406 C 44.441406 54.890625 44.441406 54.945312 45.125 54.945312 C 45.835938 54.945312 45.835938 54.917969 45.835938 52.527344 L 45.835938 50.105469 L 46.660156 50.105469 C 47.316406 50.105469 47.515625 49.964844 47.601562 49.394531 L 47.742188 48.683594 L 45.238281 48.683594 C 42.703125 48.683594 42.703125 48.683594 42.703125 49.421875 Z M 42.703125 49.421875 "/>
<path style=" stroke:none;fill-rule:nonzero;fill:rgb(0%,0%,0%);fill-opacity:1;" d="M 21.265625 49.453125 C 21.152344 49.539062 21.066406 50.820312 21.066406 52.300781 C 21.066406 54.917969 21.066406 54.945312 21.78125 54.945312 C 22.40625 54.945312 22.460938 54.832031 22.546875 53.296875 L 22.632812 51.671875 L 23.742188 53.296875 C 24.65625 54.660156 24.996094 54.945312 25.652344 54.945312 L 26.476562 54.945312 L 26.476562 52.101562 C 26.476562 49.453125 26.449219 49.253906 25.90625 49.253906 C 25.394531 49.253906 25.339844 49.453125 25.339844 50.960938 C 25.339844 51.898438 25.253906 52.667969 25.140625 52.667969 C 24.996094 52.667969 24.425781 51.898438 23.800781 50.960938 C 23.003906 49.707031 22.546875 49.253906 22.09375 49.253906 C 21.722656 49.253906 21.351562 49.339844 21.265625 49.453125 Z M 21.265625 49.453125 "/>
<path style=" stroke:none;fill-rule:nonzero;fill:rgb(0%,0%,0%);fill-opacity:1;" d="M 27.332031 52.101562 L 27.332031 54.945312 L 28.753906 54.945312 L 28.753906 49.253906 L 27.332031 49.253906 Z M 27.332031 52.101562 "/>
<path style=" stroke:none;fill-rule:nonzero;fill:rgb(0%,0%,0%);fill-opacity:1;" d="M 29.609375 52.070312 C 29.609375 54.890625 29.609375 54.945312 30.261719 54.945312 C 30.917969 54.945312 30.945312 54.859375 30.917969 52.78125 C 30.859375 50.535156 30.976562 50.277344 31.714844 50.5625 C 32.285156 50.789062 32.3125 51.984375 31.742188 52.214844 C 31.058594 52.46875 31.230469 53.238281 31.972656 53.238281 C 33.453125 53.238281 34.164062 50.988281 33.023438 49.964844 C 32.710938 49.679688 31.828125 49.394531 31.03125 49.308594 L 29.609375 49.167969 Z M 29.609375 52.070312 "/>
<path style=" stroke:none;fill-rule:nonzero;fill:rgb(0%,0%,0%);fill-opacity:1;" d="M 34.164062 52.101562 L 34.164062 54.945312 L 35.871094 54.945312 C 37.378906 54.945312 37.578125 54.890625 37.578125 54.378906 C 37.578125 53.921875 37.378906 53.808594 36.554688 53.808594 C 35.757812 53.808594 35.558594 53.722656 35.644531 53.296875 C 35.699219 53.011719 36.042969 52.78125 36.527344 52.726562 C 37.609375 52.582031 37.550781 51.816406 36.441406 51.816406 C 35.730469 51.816406 35.585938 51.699219 35.585938 51.101562 C 35.585938 50.476562 35.699219 50.390625 36.613281 50.390625 C 37.410156 50.390625 37.609375 50.304688 37.523438 49.878906 C 37.464844 49.507812 37.097656 49.367188 35.785156 49.308594 L 34.164062 49.222656 Z M 34.164062 52.101562 "/>
<path style=" stroke:none;fill-rule:nonzero;fill:rgb(0%,0%,0%);fill-opacity:1;" d="M 37.863281 52.667969 C 37.863281 53.152344 38.0625 53.238281 39.144531 53.238281 C 40.226562 53.238281 40.425781 53.152344 40.425781 52.667969 C 40.425781 52.183594 40.226562 52.101562 39.144531 52.101562 C 38.0625 52.101562 37.863281 52.183594 37.863281 52.667969 Z M 37.863281 52.667969 "/>
</g>
</svg>
